<svg xmlns="http://www.w3.org/2000/svg" viewBox="0 0 107.26 122.66"><defs><style>.cls-1{fill:#0071bc;}.cls-2{fill:none;stroke:#231f20;stroke-linecap:round;stroke-linejoin:bevel;stroke-width:0.25px;}.cls-3{fill:#231f20;}.cls-4{fill:#f15a24;}.cls-5{fill:#da0f0f;}</style></defs><g id="Layer_2" data-name="Layer 2"><g id="Layer_1-2" data-name="Layer 1"><path class="cls-1" d="M15.28,22H55.4L52.59,34.19H27.33L23.85,49.25H47.48l-2.78,12H21.07L15,87.7H.12Z"/><polyline class="cls-2" points="16.78 22.03 55.4 22.03 52.59 34.19 27.33 34.19 23.85 49.25 47.48 49.25 44.7 61.3 21.07 61.3 14.97 87.7 0.12 87.7 15.28 22.03"/><polygon class="cls-3" points="17.48 22.95 17.09 22.03 17.48 21.1 15.28 22.03 17.48 22.95"/><path class="cls-4" d="M73.26,63.46l3.5-15.13H48.68l2.22-9.61L83.74.12h18.13L93.3,37.25h7.57L98.31,48.33H90.75l-3.5,15.13Zm6.06-26.21,3.23-14c.88-3.8,2-7.72,3.15-11.8l-.35,0c-3,4.13-5.54,7.79-8.59,11.76L65.11,37.05l-.1.2Z"/><path class="cls-5" d="M73.26,63.46l3.5-15.13H48.68l2.22-9.61L83.74.12h18.13L93.3,37.25h7.57L98.31,48.33H90.75l-3.5,15.13Zm6.06-26.21,3.23-14c.88-3.8,2-7.72,3.15-11.8l-.35,0c-3,4.13-5.54,7.79-8.59,11.76L65.11,37.05l-.1.2Z"/><polyline class="cls-2" points="73.6 62.01 76.76 48.33 48.68 48.33 50.9 38.72 83.74 0.13 101.87 0.13 93.3 37.25 100.87 37.25 98.31 48.33 90.75 48.33 87.25 63.46 73.27 63.46"/><polygon class="cls-3" points="74.66 61.53 73.67 61.71 72.86 61.12 73.27 63.46 74.66 61.53"/><path class="cls-2" d="M79.65,35.79l2.9-12.55c.88-3.8,2-7.72,3.15-11.8l-.35,0c-3,4.13-5.54,7.79-8.59,11.76L65.11,37.05l-.1.2H79.32"/><polygon class="cls-3" points="80.71 35.32 79.72 35.49 78.91 34.9 79.32 37.25 80.71 35.32"/><path class="cls-1" d="M68.3,55.79,59.58,93.56c-2.62,11.34.41,17.13,8,17.13,7.8,0,13.35-5.5,16-17.13l8.72-37.77h14.85L98.63,92.64C94,112.91,81.48,122.53,64.29,122.53c-16.58,0-24.12-9.19-19.31-30.06l8.47-36.68Z"/><path class="cls-2" d="M68,57.24,59.58,93.56c-2.62,11.34.41,17.13,8,17.13,7.8,0,13.35-5.5,16-17.13l8.72-37.77h14.85L98.63,92.64C94,112.91,81.48,122.53,64.29,122.53c-16.58,0-24.12-9.19-19.31-30.06l8.47-36.68H68.3"/><polygon class="cls-3" points="66.91 57.72 67.9 57.54 68.71 58.13 68.3 55.79 66.91 57.72"/></g></g></svg>